<svg xmlns="http://www.w3.org/2000/svg" data-name="Layer 1" viewBox="0 0 299.8 266"><path fill="#262424" d="M18.3 262.4a9.3 9.3 0 0 1-7.7 3.6 9.3 9.3 0 0 1-7.7-3.6c-2.7-3.3-3-7.8-3-17.6s.3-14.3 3-17.6a9.3 9.3 0 0 1 7.6-3.5 9.3 9.3 0 0 1 7.7 3.5c2.7 3.3 3 7.8 3 17.6s-.3 14.4-3 17.6zM13.6 231a3.3 3.3 0 0 0-3-1.5 3.2 3.2 0 0 0-3 1.6c-1 2-1.3 6.3-1.3 13.8s.2 11.8 1.4 13.7a3.2 3.2 0 0 0 3 1.6 3.3 3.3 0 0 0 3-1.5c1-2 1.3-6 1.3-13.7s-.2-11.7-1.4-13.7zM27 265.5V224H33v35.6h10.4v6H27zM48.3 265.5V224h6.3v41.5h-6.3zM73.4 265.5H67L58 224H65l5 31.5 5.3-31.4h7zM85.7 265.5V224h16.8v6H92v11.7h9v6h-9v12h10.5v5.8H85.7zM123.6 265.5l-9.4-24.6v24.5H108V224h5.5l9.3 24.7V224h6.3v41.5h-5.4zM135.8 265.5V224h6.3v35.6h10.5v6h-16.7zM173.3 263a9.7 9.7 0 0 1-7.4 3 9.8 9.8 0 0 1-7.5-3 11 11 0 0 1-2.7-7.7V224h6.2v31.7c0 3 1.8 4.4 4 4.4s3.8-1.4 3.8-4.3V224h6.3v31.3a11 11 0 0 1-2.7 7.6zM198 265.5l-9.3-24.6v24.5h-6.3V224h5.6l9.4 24.7V224h6.2v41.5H198zM228.2 262a9.4 9.4 0 0 1-7.7 3.5h-10V224h10a9.4 9.4 0 0 1 7.7 3.6c2.7 3 3 7.6 3 17.2s-.3 14.2-3 17.3zm-4.7-30.3a3.6 3.6 0 0 0-3.2-1.7h-3.7v29.6h3.7a3.6 3.6 0 0 0 3.2-1.7c1.2-2 1.3-6 1.3-13.2s0-11.2-1.3-13zM236.8 265.5V224h16.7v6H243v11.7h9v6h-9v12h10.5v5.8h-16.7zM274.6 265.5l-9.4-24.6v24.5H259V224h5.5l9.3 24.7V224h6.3v41.5h-5.4zM79 160.8a52.3 52.3 0 0 0 13.4-11.3 47 47 0 0 1-20.2-22.8 15.7 15.7 0 0 1-1.2-6v-27L55 80.3 52.7 84a15.7 15.7 0 0 0-2 7.8v28.6a47 47 0 0 0 22.8 40.4 5.2 5.2 0 0 0 5.3 0M94.2 32.6a18.3 18.3 0 0 1 2 11.3l10 8.4 6.5-5.5a10.5 10.5 0 0 0 3.2-11.6A86.3 86.3 0 0 0 95 3.2a5.2 5.2 0 0 0-5-1.4A55 55 0 0 0 73 9.6a62.8 62.8 0 0 1 21.2 23zM160.4 160.8a5.2 5.2 0 0 1-5.3 0 47 47 0 0 1-22.5-35.3l20-12.7a15.2 15.2 0 0 0 13.5 21l12 10.2a52.3 52.3 0 0 1-17.6 16.8M100 67.4L76.2 46.7A15.7 15.7 0 0 1 71 35v-6.7L59.7 19a26 26 0 0 0-9 19.6v7a26 26 0 0 0 8.3 17l18.3 16a52.3 52.3 0 0 1 18 52.3l7.8 6.4a47.8 47.8 0 0 0-3-70M132.8 38.6a26 26 0 0 1 9-19.7l11.4 9.3V38l-20.4 12.7v-12M176 32.6a62.8 62.8 0 0 0-21.2-23A55 55 0 0 1 172 1.8a5.2 5.2 0 0 1 5 1.4 86.3 86.3 0 0 1 20.6 32.2 10.5 10.5 0 0 1 0 7.3 47 47 0 0 1-14.4 21 52.3 52.3 0 0 1 4.7 68l-10.6-8.7a47 47 0 0 0-22-47.3 94.2 94.2 0 0 0 21-29 15.7 15.7 0 0 0 0-12.8c0-.5-.3-1-.5-1.4M242.3 160.8a5.2 5.2 0 0 1-5.3 0 47 47 0 0 1-23-40.4V38.6a26 26 0 0 1 9-19.7l11.4 9.3v93.4a10.5 10.5 0 0 0 .7 3.7 47 47 0 0 0 20.8 24 52.3 52.3 0 0 1-13.5 11.4M7 173.7a104.7 104.7 0 0 0 3.6-27.6V38.3a8.4 8.4 0 0 0-10.6-8A151.8 151.8 0 0 1 31.8 0a102 102 0 0 0-1 13.6v120.7a44.4 44.4 0 0 1-24 39.4zM259.8 40.6a15.7 15.7 0 0 0-1.7-7.2 62.8 62.8 0 0 0-21.4-23.7A55 55 0 0 1 253.8 2a5.2 5.2 0 0 1 5 1.3 86.3 86.3 0 0 1 20.7 32.3 10.5 10.5 0 0 1 .6 3.6v65a57.5 57.5 0 0 1-14 33.4l-7.2-6a18.3 18.3 0 0 0 1-6zM68.7 190.8h142.7v3.7H68.7zM290.6 20a9.2 9.2 0 1 1 9.2-9.3 9.2 9.2 0 0 1-9.2 9.3zm0-16a6.5 6.5 0 0 0-6.7 6.7 6.6 6.6 0 1 0 13.2 0 6.5 6.5 0 0 0-6.6-6.7zm1.3 11.6l-1.6-3.6h-.8v3.6H287V6h4.3a3 3 0 0 1 3.3 3 2.7 2.7 0 0 1-1.5 2.5l2 4h-3zM291 8h-1.4v2h1.4a1 1 0 1 0 0-2z"/></svg>
