<svg xmlns="http://www.w3.org/2000/svg" xmlns:xlink="http://www.w3.org/1999/xlink" width="100" height="100" viewBox="0 0 100 100">
  <defs>
    <clipPath id="clip-path">
      <circle id="Ellipse_11" data-name="Ellipse 11" cx="50" cy="50" r="50" transform="translate(424 -967)" fill="#fff"/>
    </clipPath>
    <clipPath id="clip-path-2">
      <path id="Path_76" data-name="Path 76" d="M200,0H300V100H200Z" transform="translate(-200)" fill="rgba(0,0,0,0.7)"/>
    </clipPath>
  </defs>
  <g id="Mask_Group_1" data-name="Mask Group 1" transform="translate(-424 967)" clip-path="url(#clip-path)">
    <g id="gb" transform="translate(424 -967)" clip-path="url(#clip-path-2)">
      <g id="Group_24" data-name="Group 24" transform="translate(-50)">
        <path id="Path_72" data-name="Path 72" d="M0,0H200V100H0Z" fill="#012169"/>
        <path id="Path_73" data-name="Path 73" d="M0,0V11.18L177.64,100H200V88.82L22.36.02H0ZM200,0V11.18L22.36,100H0V88.82L177.64,0Z" fill="#fff"/>
        <path id="Path_74" data-name="Path 74" d="M83.34,0V100h33.32V0ZM0,33.34V66.66H200V33.34Z" fill="#fff"/>
        <path id="Path_75" data-name="Path 75" d="M0,40V60H200V40ZM90,0V100h20V0ZM0,100,66.66,66.66H81.6L14.9,100ZM0,0,66.66,33.34H51.76L0,7.46ZM118.42,33.34,185.1,0H200L133.34,33.34H118.4ZM200.02,100l-66.7-33.34h14.9L200,92.54V100Z" fill="#c8102e"/>
      </g>
    </g>
  </g>
</svg>
